<mxfile host="Electron" agent="Mozilla/5.0 (Windows NT 10.0; Win64; x64) AppleWebKit/537.36 (KHTML, like Gecko) draw.io/24.7.8 Chrome/128.0.6613.36 Electron/32.0.1 Safari/537.36" version="24.7.8">
  <diagram name="Page-1" id="e8NcMfRpyRCysMWZdbiD">
    <mxGraphModel dx="1420" dy="822" grid="1" gridSize="10" guides="1" tooltips="1" connect="1" arrows="1" fold="1" page="1" pageScale="1" pageWidth="827" pageHeight="1169" math="0" shadow="0">
      <root>
        <mxCell id="0" />
        <mxCell id="1" parent="0" />
        <mxCell id="TaPZH9mNPw8vO54X3EI6-11" style="edgeStyle=orthogonalEdgeStyle;rounded=0;orthogonalLoop=1;jettySize=auto;html=1;entryX=0;entryY=0.5;entryDx=0;entryDy=0;" parent="1" source="TaPZH9mNPw8vO54X3EI6-1" target="TaPZH9mNPw8vO54X3EI6-10" edge="1">
          <mxGeometry relative="1" as="geometry" />
        </mxCell>
        <mxCell id="_vq3Z08XX0XBP9HJLTH1-18" style="edgeStyle=orthogonalEdgeStyle;rounded=0;orthogonalLoop=1;jettySize=auto;html=1;entryX=0;entryY=0.5;entryDx=0;entryDy=0;" edge="1" parent="1" source="TaPZH9mNPw8vO54X3EI6-1" target="_vq3Z08XX0XBP9HJLTH1-17">
          <mxGeometry relative="1" as="geometry" />
        </mxCell>
        <mxCell id="_vq3Z08XX0XBP9HJLTH1-20" style="edgeStyle=orthogonalEdgeStyle;rounded=0;orthogonalLoop=1;jettySize=auto;html=1;entryX=0;entryY=0.5;entryDx=0;entryDy=0;" edge="1" parent="1" source="TaPZH9mNPw8vO54X3EI6-1" target="_vq3Z08XX0XBP9HJLTH1-19">
          <mxGeometry relative="1" as="geometry" />
        </mxCell>
        <mxCell id="_vq3Z08XX0XBP9HJLTH1-30" style="edgeStyle=orthogonalEdgeStyle;rounded=0;orthogonalLoop=1;jettySize=auto;html=1;entryX=0;entryY=0.5;entryDx=0;entryDy=0;" edge="1" parent="1" source="TaPZH9mNPw8vO54X3EI6-1" target="_vq3Z08XX0XBP9HJLTH1-27">
          <mxGeometry relative="1" as="geometry" />
        </mxCell>
        <mxCell id="TaPZH9mNPw8vO54X3EI6-1" value="Class" style="rounded=0;whiteSpace=wrap;html=1;" parent="1" vertex="1">
          <mxGeometry x="40" y="40" width="120" height="40" as="geometry" />
        </mxCell>
        <mxCell id="TaPZH9mNPw8vO54X3EI6-5" value="" style="edgeStyle=orthogonalEdgeStyle;rounded=0;orthogonalLoop=1;jettySize=auto;html=1;dashed=1;fillColor=#e3c800;strokeColor=#B09500;exitX=1;exitY=0.5;exitDx=0;exitDy=0;" parent="1" source="TaPZH9mNPw8vO54X3EI6-2" target="TaPZH9mNPw8vO54X3EI6-4" edge="1">
          <mxGeometry relative="1" as="geometry">
            <mxPoint x="410" y="160" as="sourcePoint" />
          </mxGeometry>
        </mxCell>
        <mxCell id="TaPZH9mNPw8vO54X3EI6-2" value="Importar CSV" style="rounded=0;whiteSpace=wrap;html=1;" parent="1" vertex="1">
          <mxGeometry x="240" y="200" width="120" height="40" as="geometry" />
        </mxCell>
        <mxCell id="TaPZH9mNPw8vO54X3EI6-4" value="arquivo CSV na pasta do notebook" style="rounded=0;whiteSpace=wrap;html=1;fillColor=#e3c800;fontColor=#000000;strokeColor=#B09500;" parent="1" vertex="1">
          <mxGeometry x="440" y="200" width="120" height="40" as="geometry" />
        </mxCell>
        <mxCell id="TaPZH9mNPw8vO54X3EI6-15" style="edgeStyle=orthogonalEdgeStyle;rounded=0;orthogonalLoop=1;jettySize=auto;html=1;entryX=0;entryY=0.5;entryDx=0;entryDy=0;" parent="1" source="TaPZH9mNPw8vO54X3EI6-6" target="TaPZH9mNPw8vO54X3EI6-14" edge="1">
          <mxGeometry relative="1" as="geometry" />
        </mxCell>
        <mxCell id="TaPZH9mNPw8vO54X3EI6-6" value="Separação Features" style="rounded=0;whiteSpace=wrap;html=1;" parent="1" vertex="1">
          <mxGeometry x="240" y="280" width="120" height="40" as="geometry" />
        </mxCell>
        <mxCell id="TaPZH9mNPw8vO54X3EI6-8" value="Separar Numéricas e Categóricas" style="rounded=0;whiteSpace=wrap;html=1;fillColor=#e3c800;fontColor=#000000;strokeColor=#B09500;" parent="1" vertex="1">
          <mxGeometry x="440" y="280" width="120" height="40" as="geometry" />
        </mxCell>
        <mxCell id="TaPZH9mNPw8vO54X3EI6-9" value="" style="edgeStyle=orthogonalEdgeStyle;rounded=0;orthogonalLoop=1;jettySize=auto;html=1;dashed=1;fillColor=#e3c800;strokeColor=#B09500;exitX=1;exitY=0.5;exitDx=0;exitDy=0;entryX=0;entryY=0.5;entryDx=0;entryDy=0;" parent="1" source="TaPZH9mNPw8vO54X3EI6-6" target="TaPZH9mNPw8vO54X3EI6-8" edge="1">
          <mxGeometry relative="1" as="geometry">
            <mxPoint x="330" y="230" as="sourcePoint" />
            <mxPoint x="490" y="370" as="targetPoint" />
          </mxGeometry>
        </mxCell>
        <mxCell id="_vq3Z08XX0XBP9HJLTH1-26" style="edgeStyle=orthogonalEdgeStyle;rounded=0;orthogonalLoop=1;jettySize=auto;html=1;entryX=0;entryY=0.5;entryDx=0;entryDy=0;" edge="1" parent="1" source="TaPZH9mNPw8vO54X3EI6-10" target="_vq3Z08XX0XBP9HJLTH1-21">
          <mxGeometry relative="1" as="geometry" />
        </mxCell>
        <mxCell id="TaPZH9mNPw8vO54X3EI6-10" value="Informacoes Numéricas" style="rounded=0;whiteSpace=wrap;html=1;fillColor=#a20025;fontColor=#ffffff;strokeColor=#6F0000;" parent="1" vertex="1">
          <mxGeometry x="160" y="680" width="120" height="40" as="geometry" />
        </mxCell>
        <mxCell id="_vq3Z08XX0XBP9HJLTH1-6" style="edgeStyle=orthogonalEdgeStyle;rounded=0;orthogonalLoop=1;jettySize=auto;html=1;entryX=0;entryY=0.5;entryDx=0;entryDy=0;" edge="1" parent="1" source="TaPZH9mNPw8vO54X3EI6-14" target="_vq3Z08XX0XBP9HJLTH1-5">
          <mxGeometry relative="1" as="geometry" />
        </mxCell>
        <mxCell id="TaPZH9mNPw8vO54X3EI6-14" value="df_tipos = df.dtypes" style="rounded=0;whiteSpace=wrap;html=1;" parent="1" vertex="1">
          <mxGeometry x="320" y="360" width="120" height="40" as="geometry" />
        </mxCell>
        <mxCell id="TaPZH9mNPw8vO54X3EI6-16" value="Separar Numéricas e Categóricas" style="rounded=0;whiteSpace=wrap;html=1;fillColor=#e3c800;fontColor=#000000;strokeColor=#B09500;" parent="1" vertex="1">
          <mxGeometry x="520" y="360" width="120" height="40" as="geometry" />
        </mxCell>
        <mxCell id="TaPZH9mNPw8vO54X3EI6-17" value="" style="edgeStyle=orthogonalEdgeStyle;rounded=0;orthogonalLoop=1;jettySize=auto;html=1;dashed=1;fillColor=#e3c800;strokeColor=#B09500;entryX=0;entryY=0.5;entryDx=0;entryDy=0;exitX=1;exitY=0.5;exitDx=0;exitDy=0;" parent="1" source="TaPZH9mNPw8vO54X3EI6-14" target="TaPZH9mNPw8vO54X3EI6-16" edge="1">
          <mxGeometry relative="1" as="geometry">
            <mxPoint x="480" y="420" as="sourcePoint" />
            <mxPoint x="570" y="450" as="targetPoint" />
          </mxGeometry>
        </mxCell>
        <mxCell id="_vq3Z08XX0XBP9HJLTH1-1" value="lista_numericas" style="rounded=0;whiteSpace=wrap;html=1;" vertex="1" parent="1">
          <mxGeometry x="480" y="520" width="120" height="40" as="geometry" />
        </mxCell>
        <mxCell id="_vq3Z08XX0XBP9HJLTH1-2" value="lista_categoricas" style="rounded=0;whiteSpace=wrap;html=1;" vertex="1" parent="1">
          <mxGeometry x="480" y="600" width="120" height="40" as="geometry" />
        </mxCell>
        <mxCell id="_vq3Z08XX0XBP9HJLTH1-7" style="edgeStyle=orthogonalEdgeStyle;rounded=0;orthogonalLoop=1;jettySize=auto;html=1;entryX=0;entryY=0.5;entryDx=0;entryDy=0;" edge="1" parent="1" source="_vq3Z08XX0XBP9HJLTH1-5" target="_vq3Z08XX0XBP9HJLTH1-1">
          <mxGeometry relative="1" as="geometry" />
        </mxCell>
        <mxCell id="_vq3Z08XX0XBP9HJLTH1-8" style="edgeStyle=orthogonalEdgeStyle;rounded=0;orthogonalLoop=1;jettySize=auto;html=1;entryX=0;entryY=0.5;entryDx=0;entryDy=0;" edge="1" parent="1" source="_vq3Z08XX0XBP9HJLTH1-5" target="_vq3Z08XX0XBP9HJLTH1-2">
          <mxGeometry relative="1" as="geometry" />
        </mxCell>
        <mxCell id="_vq3Z08XX0XBP9HJLTH1-5" value="iteraçào" style="rounded=0;whiteSpace=wrap;html=1;" vertex="1" parent="1">
          <mxGeometry x="400" y="440" width="120" height="40" as="geometry" />
        </mxCell>
        <mxCell id="_vq3Z08XX0XBP9HJLTH1-11" value="iteração para passar nos valores de cada coluna e seu tipo" style="rounded=0;whiteSpace=wrap;html=1;fillColor=#e3c800;fontColor=#000000;strokeColor=#B09500;" vertex="1" parent="1">
          <mxGeometry x="600" y="440" width="120" height="40" as="geometry" />
        </mxCell>
        <mxCell id="_vq3Z08XX0XBP9HJLTH1-12" value="" style="edgeStyle=orthogonalEdgeStyle;rounded=0;orthogonalLoop=1;jettySize=auto;html=1;dashed=1;fillColor=#e3c800;strokeColor=#B09500;entryX=0;entryY=0.5;entryDx=0;entryDy=0;exitX=1;exitY=0.5;exitDx=0;exitDy=0;" edge="1" parent="1" target="_vq3Z08XX0XBP9HJLTH1-11">
          <mxGeometry relative="1" as="geometry">
            <mxPoint x="520" y="460" as="sourcePoint" />
            <mxPoint x="650" y="530" as="targetPoint" />
          </mxGeometry>
        </mxCell>
        <mxCell id="_vq3Z08XX0XBP9HJLTH1-13" value="Lista Colunas Numéricas" style="rounded=0;whiteSpace=wrap;html=1;fillColor=#e3c800;fontColor=#000000;strokeColor=#B09500;" vertex="1" parent="1">
          <mxGeometry x="680" y="520" width="120" height="40" as="geometry" />
        </mxCell>
        <mxCell id="_vq3Z08XX0XBP9HJLTH1-14" value="" style="edgeStyle=orthogonalEdgeStyle;rounded=0;orthogonalLoop=1;jettySize=auto;html=1;dashed=1;fillColor=#e3c800;strokeColor=#B09500;entryX=0;entryY=0.5;entryDx=0;entryDy=0;exitX=1;exitY=0.5;exitDx=0;exitDy=0;" edge="1" parent="1" target="_vq3Z08XX0XBP9HJLTH1-13">
          <mxGeometry relative="1" as="geometry">
            <mxPoint x="600" y="540" as="sourcePoint" />
            <mxPoint x="730" y="610" as="targetPoint" />
          </mxGeometry>
        </mxCell>
        <mxCell id="_vq3Z08XX0XBP9HJLTH1-15" value="Lista Colunas Categóricas" style="rounded=0;whiteSpace=wrap;html=1;fillColor=#e3c800;fontColor=#000000;strokeColor=#B09500;" vertex="1" parent="1">
          <mxGeometry x="680" y="600" width="120" height="40" as="geometry" />
        </mxCell>
        <mxCell id="_vq3Z08XX0XBP9HJLTH1-16" value="" style="edgeStyle=orthogonalEdgeStyle;rounded=0;orthogonalLoop=1;jettySize=auto;html=1;dashed=1;fillColor=#e3c800;strokeColor=#B09500;entryX=0;entryY=0.5;entryDx=0;entryDy=0;exitX=1;exitY=0.5;exitDx=0;exitDy=0;" edge="1" parent="1" target="_vq3Z08XX0XBP9HJLTH1-15">
          <mxGeometry relative="1" as="geometry">
            <mxPoint x="600" y="620" as="sourcePoint" />
            <mxPoint x="730" y="690" as="targetPoint" />
          </mxGeometry>
        </mxCell>
        <mxCell id="_vq3Z08XX0XBP9HJLTH1-17" value="Informacoes Categóricas" style="rounded=0;whiteSpace=wrap;html=1;fillColor=#0050ef;fontColor=#ffffff;strokeColor=#001DBC;" vertex="1" parent="1">
          <mxGeometry x="160" y="920" width="120" height="40" as="geometry" />
        </mxCell>
        <mxCell id="_vq3Z08XX0XBP9HJLTH1-36" style="edgeStyle=orthogonalEdgeStyle;rounded=0;orthogonalLoop=1;jettySize=auto;html=1;entryX=0;entryY=0.5;entryDx=0;entryDy=0;" edge="1" parent="1" source="_vq3Z08XX0XBP9HJLTH1-19" target="_vq3Z08XX0XBP9HJLTH1-35">
          <mxGeometry relative="1" as="geometry" />
        </mxCell>
        <mxCell id="_vq3Z08XX0XBP9HJLTH1-19" value="Informacoes Genéricas" style="rounded=0;whiteSpace=wrap;html=1;fillColor=#008a00;fontColor=#ffffff;strokeColor=#005700;" vertex="1" parent="1">
          <mxGeometry x="160" y="1200" width="120" height="40" as="geometry" />
        </mxCell>
        <mxCell id="_vq3Z08XX0XBP9HJLTH1-23" style="edgeStyle=orthogonalEdgeStyle;rounded=0;orthogonalLoop=1;jettySize=auto;html=1;entryX=0;entryY=0.5;entryDx=0;entryDy=0;" edge="1" parent="1" source="_vq3Z08XX0XBP9HJLTH1-21" target="_vq3Z08XX0XBP9HJLTH1-22">
          <mxGeometry relative="1" as="geometry" />
        </mxCell>
        <mxCell id="_vq3Z08XX0XBP9HJLTH1-21" value="descricao" style="rounded=0;whiteSpace=wrap;html=1;" vertex="1" parent="1">
          <mxGeometry x="240" y="760" width="120" height="40" as="geometry" />
        </mxCell>
        <mxCell id="_vq3Z08XX0XBP9HJLTH1-22" value="x = lista_numericas" style="rounded=0;whiteSpace=wrap;html=1;" vertex="1" parent="1">
          <mxGeometry x="320" y="840" width="120" height="40" as="geometry" />
        </mxCell>
        <mxCell id="_vq3Z08XX0XBP9HJLTH1-24" value="X é parâmetro da função com valor padrão = lista_numerica" style="rounded=0;whiteSpace=wrap;html=1;fillColor=#e3c800;fontColor=#000000;strokeColor=#B09500;" vertex="1" parent="1">
          <mxGeometry x="440" y="760" width="200" height="40" as="geometry" />
        </mxCell>
        <mxCell id="_vq3Z08XX0XBP9HJLTH1-25" value="" style="edgeStyle=orthogonalEdgeStyle;rounded=0;orthogonalLoop=1;jettySize=auto;html=1;dashed=1;fillColor=#e3c800;strokeColor=#B09500;entryX=0;entryY=0.5;entryDx=0;entryDy=0;exitX=1;exitY=0.5;exitDx=0;exitDy=0;" edge="1" parent="1" target="_vq3Z08XX0XBP9HJLTH1-24">
          <mxGeometry relative="1" as="geometry">
            <mxPoint x="360" y="780" as="sourcePoint" />
            <mxPoint x="490" y="850" as="targetPoint" />
          </mxGeometry>
        </mxCell>
        <mxCell id="_vq3Z08XX0XBP9HJLTH1-28" style="edgeStyle=orthogonalEdgeStyle;rounded=0;orthogonalLoop=1;jettySize=auto;html=1;entryX=0;entryY=0.5;entryDx=0;entryDy=0;" edge="1" parent="1" source="_vq3Z08XX0XBP9HJLTH1-27" target="TaPZH9mNPw8vO54X3EI6-2">
          <mxGeometry relative="1" as="geometry" />
        </mxCell>
        <mxCell id="_vq3Z08XX0XBP9HJLTH1-29" style="edgeStyle=orthogonalEdgeStyle;rounded=0;orthogonalLoop=1;jettySize=auto;html=1;entryX=0;entryY=0.5;entryDx=0;entryDy=0;" edge="1" parent="1" source="_vq3Z08XX0XBP9HJLTH1-27" target="TaPZH9mNPw8vO54X3EI6-6">
          <mxGeometry relative="1" as="geometry" />
        </mxCell>
        <mxCell id="_vq3Z08XX0XBP9HJLTH1-27" value="__init__" style="rounded=0;whiteSpace=wrap;html=1;" vertex="1" parent="1">
          <mxGeometry x="160" y="120" width="120" height="40" as="geometry" />
        </mxCell>
        <mxCell id="_vq3Z08XX0XBP9HJLTH1-32" value="Informacoes Numéricas" style="rounded=0;whiteSpace=wrap;html=1;fillColor=#a20025;fontColor=#ffffff;strokeColor=#6F0000;" vertex="1" parent="1">
          <mxGeometry x="560" y="40" width="120" height="40" as="geometry" />
        </mxCell>
        <mxCell id="_vq3Z08XX0XBP9HJLTH1-33" value="Informacoes Categóricas" style="rounded=0;whiteSpace=wrap;html=1;fillColor=#0050ef;fontColor=#ffffff;strokeColor=#001DBC;" vertex="1" parent="1">
          <mxGeometry x="720" y="40" width="120" height="40" as="geometry" />
        </mxCell>
        <mxCell id="_vq3Z08XX0XBP9HJLTH1-34" value="Explicação / Informação" style="rounded=0;whiteSpace=wrap;html=1;fillColor=#e3c800;fontColor=#000000;strokeColor=#B09500;" vertex="1" parent="1">
          <mxGeometry x="880" y="40" width="120" height="40" as="geometry" />
        </mxCell>
        <mxCell id="_vq3Z08XX0XBP9HJLTH1-35" value="contagem_nulos" style="rounded=0;whiteSpace=wrap;html=1;fillColor=#008a00;fontColor=#ffffff;strokeColor=#005700;" vertex="1" parent="1">
          <mxGeometry x="240" y="1280" width="120" height="40" as="geometry" />
        </mxCell>
        <mxCell id="_vq3Z08XX0XBP9HJLTH1-37" value="" style="endArrow=none;html=1;rounded=0;strokeWidth=7;fillColor=#fa6800;strokeColor=#C73500;" edge="1" parent="1">
          <mxGeometry width="50" height="50" relative="1" as="geometry">
            <mxPoint x="200" y="1360" as="sourcePoint" />
            <mxPoint x="400" y="1240" as="targetPoint" />
          </mxGeometry>
        </mxCell>
        <mxCell id="_vq3Z08XX0XBP9HJLTH1-38" value="Contagem de Nulos" style="rounded=0;whiteSpace=wrap;html=1;fillColor=#e3c800;fontColor=#000000;strokeColor=#B09500;" vertex="1" parent="1">
          <mxGeometry x="440" y="1280" width="200" height="40" as="geometry" />
        </mxCell>
        <mxCell id="_vq3Z08XX0XBP9HJLTH1-39" value="" style="edgeStyle=orthogonalEdgeStyle;rounded=0;orthogonalLoop=1;jettySize=auto;html=1;dashed=1;fillColor=#e3c800;strokeColor=#B09500;entryX=0;entryY=0.5;entryDx=0;entryDy=0;exitX=1;exitY=0.5;exitDx=0;exitDy=0;" edge="1" parent="1" target="_vq3Z08XX0XBP9HJLTH1-38">
          <mxGeometry relative="1" as="geometry">
            <mxPoint x="360" y="1300" as="sourcePoint" />
            <mxPoint x="490" y="1370" as="targetPoint" />
          </mxGeometry>
        </mxCell>
        <mxCell id="_vq3Z08XX0XBP9HJLTH1-40" value="contagem_unicos&lt;div&gt;nunique&lt;/div&gt;" style="rounded=0;whiteSpace=wrap;html=1;fillColor=#008a00;fontColor=#ffffff;strokeColor=#005700;" vertex="1" parent="1">
          <mxGeometry x="240" y="1360" width="120" height="40" as="geometry" />
        </mxCell>
        <mxCell id="_vq3Z08XX0XBP9HJLTH1-41" value="Contagem de Únicos (total)" style="rounded=0;whiteSpace=wrap;html=1;fillColor=#e3c800;fontColor=#000000;strokeColor=#B09500;" vertex="1" parent="1">
          <mxGeometry x="440" y="1360" width="200" height="40" as="geometry" />
        </mxCell>
        <mxCell id="_vq3Z08XX0XBP9HJLTH1-42" value="" style="edgeStyle=orthogonalEdgeStyle;rounded=0;orthogonalLoop=1;jettySize=auto;html=1;dashed=1;fillColor=#e3c800;strokeColor=#B09500;entryX=0;entryY=0.5;entryDx=0;entryDy=0;exitX=1;exitY=0.5;exitDx=0;exitDy=0;" edge="1" parent="1" target="_vq3Z08XX0XBP9HJLTH1-41">
          <mxGeometry relative="1" as="geometry">
            <mxPoint x="360" y="1380" as="sourcePoint" />
            <mxPoint x="490" y="1450" as="targetPoint" />
          </mxGeometry>
        </mxCell>
        <mxCell id="_vq3Z08XX0XBP9HJLTH1-43" value="valores_unicos&lt;div&gt;unique&lt;/div&gt;" style="rounded=0;whiteSpace=wrap;html=1;fillColor=#008a00;fontColor=#ffffff;strokeColor=#005700;" vertex="1" parent="1">
          <mxGeometry x="240" y="1440" width="120" height="40" as="geometry" />
        </mxCell>
        <mxCell id="_vq3Z08XX0XBP9HJLTH1-44" value="Contagem de Únicos" style="rounded=0;whiteSpace=wrap;html=1;fillColor=#e3c800;fontColor=#000000;strokeColor=#B09500;" vertex="1" parent="1">
          <mxGeometry x="440" y="1440" width="200" height="40" as="geometry" />
        </mxCell>
        <mxCell id="_vq3Z08XX0XBP9HJLTH1-45" value="" style="edgeStyle=orthogonalEdgeStyle;rounded=0;orthogonalLoop=1;jettySize=auto;html=1;dashed=1;fillColor=#e3c800;strokeColor=#B09500;entryX=0;entryY=0.5;entryDx=0;entryDy=0;exitX=1;exitY=0.5;exitDx=0;exitDy=0;" edge="1" parent="1" target="_vq3Z08XX0XBP9HJLTH1-44">
          <mxGeometry relative="1" as="geometry">
            <mxPoint x="360" y="1460" as="sourcePoint" />
            <mxPoint x="490" y="1530" as="targetPoint" />
          </mxGeometry>
        </mxCell>
      </root>
    </mxGraphModel>
  </diagram>
</mxfile>
